<?xml version="1.0" standalone="no"?>
<!DOCTYPE svg PUBLIC "-//W3C//DTD SVG 20010904//EN"
 "http://www.w3.org/TR/2001/REC-SVG-20010904/DTD/svg10.dtd">
<svg version="1.0" xmlns="http://www.w3.org/2000/svg"
 width="260.000000pt" height="260.000000pt" viewBox="0 0 260.000000 260.000000"
 preserveAspectRatio="xMidYMid meet">
<metadata>
Created by potrace 1.11, written by Peter Selinger 2001-2013
</metadata>
<g transform="translate(0.000000,260.000000) scale(0.100000,-0.100000)"
fill="#000000" stroke="none">
<path d="M112 2487 l-112 -113 2 -257 3 -257 370 370 370 370 -260 0 -260 0
-113 -113z"/>
<path d="M1040 2485 c-76 -76 -127 -119 -150 -126 -19 -7 -69 -29 -110 -49
-241 -122 -437 -334 -544 -591 -23 -55 -45 -83 -132 -170 l-104 -104 0 -335 0
-335 95 95 c59 58 98 91 104 85 5 -6 14 -28 21 -50 7 -22 33 -80 57 -129 l45
-89 -161 -161 -161 -161 0 -183 0 -182 83 0 82 0 206 199 206 199 61 -43 c34
-23 94 -59 133 -80 l71 -37 -118 -119 -119 -119 309 0 310 0 75 74 c71 68 80
74 131 81 514 66 919 461 994 969 l14 88 81 82 81 81 0 290 0 290 -120 -120
c-65 -65 -121 -117 -123 -115 -2 3 -21 39 -41 80 -21 41 -55 101 -76 132 l-39
56 199 196 200 196 0 110 0 110 -183 0 -182 0 -168 -168 -168 -169 -92 46
c-51 26 -112 53 -137 61 -25 7 -47 15 -49 17 -3 2 42 51 99 108 l105 105 -335
0 -335 0 -115 -115z m421 -190 c114 -20 299 -85 299 -105 0 -3 -26 -19 -57
-34 l-58 -27 -213 34 -213 34 -44 43 c-25 24 -45 47 -45 51 0 21 223 23 331 4z
m-23 -184 c101 -16 186 -32 190 -35 3 -4 18 -84 34 -179 l28 -172 -98 -97 -97
-96 -174 28 c-95 16 -177 32 -182 37 -4 4 -26 57 -48 117 l-40 109 80 158 c67
135 83 159 102 159 12 0 104 -13 205 -29z m-831 -163 l11 -73 -103 -185 c-101
-183 -103 -185 -160 -217 -31 -18 -59 -33 -61 -33 -19 0 34 187 81 287 18 39
53 100 76 135 43 64 126 158 139 158 3 0 11 -33 17 -72z m248 -133 c77 -9 143
-19 147 -23 3 -4 25 -55 48 -114 l41 -106 -83 -166 -82 -165 -51 -5 c-27 -3
-75 -7 -105 -9 l-54 -4 -96 96 c-53 53 -111 112 -128 132 l-32 37 86 153 c120
213 110 199 142 194 15 -3 90 -12 167 -20z m1373 -112 c60 -142 82 -257 81
-420 -1 -171 -3 -175 -59 -121 l-45 43 -34 221 -33 220 28 52 c16 28 32 52 35
52 4 0 16 -21 27 -47z m-310 -48 c86 -14 160 -29 163 -33 4 -4 19 -83 33 -177
15 -93 29 -184 32 -202 l6 -32 -162 -81 -163 -82 -103 37 c-56 20 -109 42
-117 48 -9 8 -24 73 -42 186 l-27 173 93 94 c52 52 102 94 112 94 10 0 89 -11
175 -25z m-859 -599 l133 -133 -7 -102 -8 -102 -163 -82 -164 -82 -147 148
-148 147 79 152 c43 84 83 158 88 163 5 6 46 13 91 16 45 3 89 6 97 7 8 1 75
-58 149 -132z m740 -62 c4 -5 18 -79 30 -164 12 -85 24 -163 27 -172 4 -14
-32 -36 -184 -112 l-189 -94 -127 127 -128 128 7 107 7 106 166 84 165 83 109
-42 c60 -23 112 -46 117 -51z m-1294 -174 c11 -5 88 -77 171 -162 l151 -153 7
-59 c4 -32 5 -61 2 -63 -6 -6 -104 55 -172 109 -104 81 -188 179 -259 302
l-28 48 54 -7 c30 -4 63 -11 74 -15z m1488 -237 l29 -5 -24 -25 c-77 -84 -262
-192 -403 -236 -89 -27 -155 -41 -155 -32 0 14 50 102 66 116 11 9 100 58 199
108 191 96 185 94 288 74z"/>
<path d="M2115 480 l-480 -480 270 0 270 0 213 213 212 213 -2 267 -3 267
-480 -480z"/>
</g>
</svg>
